<svg id="Layer_1" data-name="Layer 1" xmlns="http://www.w3.org/2000/svg" xmlns:xlink="http://www.w3.org/1999/xlink" viewBox="0 0 720 288"><defs><style>.cls-1,.cls-15,.cls-16,.cls-23{fill:none;}.cls-2{fill:#141726;}.cls-3,.cls-6{font-size:17px;font-style:italic;}.cls-17,.cls-24,.cls-3,.cls-6{fill:#fff;}.cls-3{font-family:Lato-LightItalic, Lato;}.cls-4{letter-spacing:-0.01em;}.cls-5{letter-spacing:-0.01em;}.cls-6{font-family:Lato-BlackItalic, Lato;}.cls-7{letter-spacing:-0.02em;}.cls-8{letter-spacing:-0.02em;}.cls-9{letter-spacing:-0.01em;}.cls-10{letter-spacing:-0.01em;}.cls-11{letter-spacing:-0.02em;}.cls-12{letter-spacing:-0.02em;}.cls-13{letter-spacing:-0.02em;}.cls-14{clip-path:url(#clip-path);}.cls-15,.cls-23{stroke:#fff;}.cls-16{stroke:#7f58a3;stroke-linecap:round;stroke-miterlimit:10;stroke-width:4.14px;}.cls-17{font-size:12px;font-family:Lato-Bold, Lato;font-weight:700;}.cls-18{letter-spacing:-0.04em;}.cls-19{letter-spacing:-0.04em;}.cls-20{letter-spacing:-0.07em;}.cls-21{letter-spacing:-0.02em;}.cls-22{letter-spacing:0em;}.cls-23{stroke-width:0.5px;}.cls-24{font-size:10px;font-family:Lato-Regular, Lato;}</style><clipPath id="clip-path"><rect class="cls-1" x="17.02" y="50.96" width="685.96" height="201.2"/></clipPath></defs><title>business-graph1</title><rect class="cls-2" width="720" height="288"/><text class="cls-3" transform="translate(458.12 113.25)">Initial i<tspan class="cls-4" x="45.99" y="0">n</tspan><tspan class="cls-5" x="54.51" y="0">v</tspan><tspan x="62.05" y="0">estment of </tspan></text><text class="cls-6" transform="translate(594.76 113.25)">$600,000</text><text class="cls-3" transform="translate(481.98 133.65)">B<tspan class="cls-7" x="10.02" y="0">r</tspan><tspan x="15.41" y="0">ea</tspan><tspan class="cls-8" x="31.35" y="0">k</tspan><tspan x="38.54" y="0">e</tspan><tspan class="cls-9" x="46.15" y="0">v</tspan><tspan x="53.69" y="0">en during </tspan><tspan class="cls-10" x="119.7" y="0">y</tspan><tspan x="127.25" y="0">ear </tspan></text><text class="cls-6" transform="translate(634.06 133.65)">2</text><text class="cls-3" transform="translate(442.15 154.05)">Captu<tspan class="cls-11" x="41.96" y="0">r</tspan><tspan x="47.36" y="0">e</tspan></text><text class="cls-6" transform="translate(497.08 154.05)"><tspan xml:space="preserve"> 4% </tspan></text><text class="cls-3" transform="translate(526.35 154.05)">of the mar<tspan class="cls-12" x="68.97" y="0">k</tspan><tspan x="76.16" y="0">et by </tspan></text><text class="cls-6" transform="translate(638.59 154.05)"><tspan class="cls-13">y</tspan><tspan x="8.45" y="0">ear 4</tspan></text><g class="cls-14"><line class="cls-15" x1="91.14" y1="50.96" x2="91.14" y2="243.76"/></g><line class="cls-15" x1="79.14" y1="197.76" x2="419.68" y2="197.76"/><g class="cls-14"><path class="cls-16" d="M91.64,198.26s32.08,29.09,61.9,30.1,68.88-29.88,68.88-29.88S345.54,92,396,76.83"/></g><text class="cls-17" transform="translate(239.86 245.02)">YEAR</text><g class="cls-14"><text class="cls-17" transform="translate(26.68 207.86) rotate(-90)"><tspan class="cls-18">T</tspan><tspan class="cls-19" x="6.68" y="0">O</tspan><tspan class="cls-20" x="15.81" y="0">T</tspan><tspan x="22.07" y="0">AL P</tspan><tspan class="cls-21" x="46.61" y="0">R</tspan><tspan class="cls-22" x="54.19" y="0">OFIT ($)</tspan></text></g><line class="cls-23" x1="237.54" y1="197.76" x2="237.54" y2="207.36"/><text class="cls-24" transform="translate(234.39 219.61)">2</text><line class="cls-23" x1="164.71" y1="198.26" x2="164.71" y2="207.86"/><text class="cls-24" transform="translate(161.56 220.11)">1</text><line class="cls-23" x1="378.89" y1="197.76" x2="378.89" y2="207.36"/><text class="cls-24" transform="translate(375.74 219.61)">4</text><line class="cls-23" x1="306.06" y1="198.26" x2="306.06" y2="207.86"/><text class="cls-24" transform="translate(302.91 220.11)">3</text><line class="cls-23" x1="91.1" y1="226.71" x2="81.5" y2="226.71"/><text class="cls-24" transform="translate(48.19 229.71)">-500k</text><line class="cls-23" x1="91.1" y1="168.51" x2="81.5" y2="168.51"/><text class="cls-24" transform="translate(49.93 171.51)">500k</text><line class="cls-23" x1="91.1" y1="137.09" x2="81.5" y2="137.09"/><text class="cls-24" transform="translate(47.03 140.09)">1000k</text><line class="cls-23" x1="91.1" y1="102.16" x2="81.5" y2="102.16"/><text class="cls-24" transform="translate(47.03 105.16)">1500k</text><line class="cls-23" x1="91.1" y1="69.01" x2="81.5" y2="69.01"/><text class="cls-24" transform="translate(47.03 72.01)">2000k</text><text class="cls-24" transform="translate(59.4 201.51)">0</text></svg>