<svg id="Layer_1" data-name="Layer 1" xmlns="http://www.w3.org/2000/svg" xmlns:xlink="http://www.w3.org/1999/xlink" viewBox="0 0 729 271"><defs><style>.cls-1,.cls-10,.cls-17{fill:none;}.cls-2{opacity:0.25;}.cls-3{clip-path:url(#clip-path);}.cls-11,.cls-13,.cls-4,.cls-6,.cls-7,.cls-8,.cls-9{fill:#fff;}.cls-5{clip-path:url(#clip-path-2);}.cls-6,.cls-7{font-size:14px;}.cls-13,.cls-6{font-family:Lato-BlackItalic, Lato;}.cls-11,.cls-13,.cls-6,.cls-7{font-style:italic;}.cls-11,.cls-7{font-family:Lato-LightItalic, Lato;}.cls-8{font-size:20px;font-family:Lato-Black, Lato;}.cls-9{font-size:16px;font-family:Lato-Light, Lato;}.cls-10{stroke:#fff;stroke-width:0.5px;}.cls-11,.cls-13{font-size:17px;}.cls-12{letter-spacing:-0.01em;}.cls-14{clip-path:url(#clip-path-3);}.cls-15{fill:#8158a4;}.cls-16{fill:#7d57a4;}.cls-17{stroke:#7d57a4;stroke-miterlimit:10;}.cls-18{fill:#cdcccb;}.cls-19{fill:#a4a5a5;}</style><clipPath id="clip-path" transform="translate(-0.58 -8.5)"><rect class="cls-1" x="-8.42" y="1.5" width="517.99" height="279"/></clipPath><clipPath id="clip-path-2" transform="translate(-0.58 -8.5)"><rect class="cls-1" x="507.58" y="1.5" width="222" height="279"/></clipPath><clipPath id="clip-path-3" transform="translate(-0.58 -8.5)"><rect class="cls-1" x="0.58" y="8.5" width="729" height="271"/></clipPath></defs><title>business-graph3</title><g class="cls-2"><g class="cls-3"><rect class="cls-4" width="499.99" height="271"/></g></g><g class="cls-2"><g class="cls-5"><rect class="cls-4" x="516" width="204" height="271"/></g></g><rect class="cls-1" width="729" height="271"/><text class="cls-6" transform="translate(84.68 40.59)">$145</text><path class="cls-4" d="M71.15,61.4l-.55,4.49h-.69L71.12,56h2.35a3.38,3.38,0,0,1,2.15.57,2,2,0,0,1,.71,1.66,3.2,3.2,0,0,1-.21,1.18,2.85,2.85,0,0,1-.6.94,3,3,0,0,1-.93.65,4.05,4.05,0,0,1-1.2.34.87.87,0,0,1,.24.27l2.58,4.3h-.6a.34.34,0,0,1-.31-.18l-2.39-4a.61.61,0,0,0-.21-.22.83.83,0,0,0-.37-.06Zm.6-4.87-.54,4.35h1.56A3.65,3.65,0,0,0,74,60.7a2.57,2.57,0,0,0,.9-.52,2.22,2.22,0,0,0,.57-.81,2.75,2.75,0,0,0,.2-1.06A1.59,1.59,0,0,0,75.07,57a2.66,2.66,0,0,0-1.66-.44Zm11,3.72a1.91,1.91,0,0,1-.08.55,1.35,1.35,0,0,1-.27.49,2.2,2.2,0,0,1-.53.44,4.07,4.07,0,0,1-.86.38,10,10,0,0,1-1.25.31q-.73.14-1.71.24,0,.15,0,.29t0,.28a2.54,2.54,0,0,0,.47,1.63,1.72,1.72,0,0,0,1.42.59,2.56,2.56,0,0,0,.67-.08,2.5,2.5,0,0,0,.53-.21,2.86,2.86,0,0,0,.41-.27l.32-.27.24-.21a.31.31,0,0,1,.19-.08.19.19,0,0,1,.15.07l.15.18a6.75,6.75,0,0,1-.67.63,3.74,3.74,0,0,1-.66.43,3,3,0,0,1-.69.25,3.47,3.47,0,0,1-.76.08,2.61,2.61,0,0,1-1-.19,2.06,2.06,0,0,1-.76-.55,2.39,2.39,0,0,1-.47-.86,3.75,3.75,0,0,1-.16-1.14,5.45,5.45,0,0,1,.11-1.06,5.23,5.23,0,0,1,.31-1,4.75,4.75,0,0,1,.51-.92,3.7,3.7,0,0,1,.7-.74,3.2,3.2,0,0,1,.87-.5,2.86,2.86,0,0,1,1-.18,2.3,2.3,0,0,1,.86.14,1.77,1.77,0,0,1,.57.36,1.32,1.32,0,0,1,.32.46A1.27,1.27,0,0,1,82.8,60.25Zm-1.89-.94a2.14,2.14,0,0,0-1,.24,2.78,2.78,0,0,0-.8.63,3.66,3.66,0,0,0-.58.92,5,5,0,0,0-.35,1.09q.89-.1,1.53-.23a10.29,10.29,0,0,0,1.09-.27,3.43,3.43,0,0,0,.72-.31A1.8,1.8,0,0,0,82,61a1,1,0,0,0,.21-.37,1.46,1.46,0,0,0,.05-.39.89.89,0,0,0-.07-.32.83.83,0,0,0-.22-.31,1.26,1.26,0,0,0-.4-.23A1.73,1.73,0,0,0,80.91,59.32Zm3.51,5.4s0-.06,0-.1,0-.1,0-.19,0-.19,0-.33l.06-.51.48-4h-.92q-.14,0-.14-.13l0-.29,1.1-.08.46-2.49a.23.23,0,0,1,.06-.11.16.16,0,0,1,.12,0H86l-.33,2.66h2l-.06.5h-2l-.48,3.93-.06.47,0,.3q0,.12,0,.17s0,.07,0,.08a.87.87,0,0,0,.21.66.77.77,0,0,0,.55.2,1.07,1.07,0,0,0,.41-.07,1.84,1.84,0,0,0,.31-.16l.22-.16A.24.24,0,0,1,86.9,65L87,65,87,65l.13.29a2.13,2.13,0,0,1-.68.48,1.92,1.92,0,0,1-.8.18,1.24,1.24,0,0,1-.9-.32A1.31,1.31,0,0,1,84.42,64.72Zm8.74,1.17h-.32a.2.2,0,0,1-.24-.22l.23-2.19a7.19,7.19,0,0,1-.58,1,4.66,4.66,0,0,1-.68.79,2.93,2.93,0,0,1-.76.51A2,2,0,0,1,90,66a1.64,1.64,0,0,1-.77-.17,1.52,1.52,0,0,1-.55-.49,2.28,2.28,0,0,1-.33-.76,4.16,4.16,0,0,1-.11-1,4.66,4.66,0,0,1,.15-1.19,5,5,0,0,1,.44-1.11,5.08,5.08,0,0,1,.68-1,4.68,4.68,0,0,1,.86-.76,4.14,4.14,0,0,1,1-.5,3.46,3.46,0,0,1,1.11-.18,4,4,0,0,1,.78.07,2.81,2.81,0,0,1,.72.26Zm-3-.46A1.56,1.56,0,0,0,91,65.2a2.87,2.87,0,0,0,.74-.63,5.63,5.63,0,0,0,.66-1,8.85,8.85,0,0,0,.56-1.28l.35-2.84a2.78,2.78,0,0,0-.9-.14,2.69,2.69,0,0,0-.91.16,3.33,3.33,0,0,0-.83.44,4,4,0,0,0-.71.67,4.54,4.54,0,0,0-.56.84,4.49,4.49,0,0,0-.37,1,4.23,4.23,0,0,0-.13,1,2.8,2.8,0,0,0,.32,1.46A1.08,1.08,0,0,0,90.2,65.43Zm6.8-6.5-.85,7H95.5l.85-7Zm.51-2.4a.56.56,0,0,1,0,.23.65.65,0,0,1-.33.33.53.53,0,0,1-.22,0,.52.52,0,0,1-.22,0A.61.61,0,0,1,96.5,57a.68.68,0,0,1-.13-.19.56.56,0,0,1,0-.23.59.59,0,0,1,0-.24.72.72,0,0,1,.13-.2.59.59,0,0,1,.19-.14.52.52,0,0,1,.22,0,.53.53,0,0,1,.22,0,.65.65,0,0,1,.19.13.62.62,0,0,1,.13.2A.61.61,0,0,1,97.51,56.52Zm1.15,9.37L99.89,55.7h.65L99.3,65.89Zm7.31-4-.49,4h-.69L106,56h2.38a3.18,3.18,0,0,1,2.18.65,2.34,2.34,0,0,1,.73,1.84,3.59,3.59,0,0,1-.26,1.38,3.1,3.1,0,0,1-.74,1.08,3.36,3.36,0,0,1-1.15.7,4.24,4.24,0,0,1-1.5.25Zm.66-5.36-.59,4.8h1.68a3.19,3.19,0,0,0,1.19-.21,2.66,2.66,0,0,0,.9-.58,2.56,2.56,0,0,0,.58-.88,3,3,0,0,0,.2-1.11,1.92,1.92,0,0,0-.57-1.48,2.44,2.44,0,0,0-1.71-.53ZM112,65.89l.84-7h.3a.22.22,0,0,1,.24.25l-.2,2.07a5.49,5.49,0,0,1,1.09-1.76,1.82,1.82,0,0,1,1.31-.62,1.59,1.59,0,0,1,.59.12l-.12.62a1.74,1.74,0,0,0-.6-.12,1.72,1.72,0,0,0-1.35.74,6.36,6.36,0,0,0-1,2.13l-.42,3.55Zm6.76.09a2.57,2.57,0,0,1-1-.2,2.16,2.16,0,0,1-.78-.57,2.61,2.61,0,0,1-.5-.9,3.74,3.74,0,0,1-.18-1.2,5.26,5.26,0,0,1,.25-1.63,4.49,4.49,0,0,1,.71-1.38,3.57,3.57,0,0,1,1.09-.95,2.78,2.78,0,0,1,1.39-.35,2.53,2.53,0,0,1,1,.2,2.21,2.21,0,0,1,.78.57,2.57,2.57,0,0,1,.5.9,3.73,3.73,0,0,1,.18,1.19,5.17,5.17,0,0,1-.26,1.62,4.66,4.66,0,0,1-.71,1.38,3.56,3.56,0,0,1-1.09,1A2.76,2.76,0,0,1,118.75,66Zm.06-.53a2,2,0,0,0,1.11-.32,2.93,2.93,0,0,0,.86-.85,4.17,4.17,0,0,0,.55-1.21,5.15,5.15,0,0,0,.19-1.4,2.67,2.67,0,0,0-.5-1.73,1.68,1.68,0,0,0-1.38-.61,2,2,0,0,0-.76.14,2.35,2.35,0,0,0-.66.4,3.14,3.14,0,0,0-.54.61,3.86,3.86,0,0,0-.41.77,4.89,4.89,0,0,0-.25.89,5.21,5.21,0,0,0-.09,1,2.68,2.68,0,0,0,.49,1.73A1.68,1.68,0,0,0,118.81,65.46Zm6.06-6.31h3.78l-.83,6.75h-.66l.77-6.25h-3.09l-.76,6.11-.29,1.61a.35.35,0,0,1-.12.22.35.35,0,0,1-.23.07h-.24l1-8-.88-.06q-.17,0-.17-.15l0-.29h1.08l.08-.6a3.78,3.78,0,0,1,.32-1.15,2.77,2.77,0,0,1,.62-.86,2.62,2.62,0,0,1,.89-.54,3.2,3.2,0,0,1,1.12-.19h.23l.26,0,.24,0,.19.06-.06.32a.11.11,0,0,1-.12.08l-.25,0a2.27,2.27,0,0,0-.39,0,2.38,2.38,0,0,0-1.65.56,2.64,2.64,0,0,0-.76,1.72Zm5.94,5.58s0-.06,0-.1,0-.1,0-.19,0-.19,0-.33l.06-.51.48-4h-.92q-.14,0-.14-.13l0-.29,1.1-.08.46-2.49a.23.23,0,0,1,.06-.11.16.16,0,0,1,.12,0h.32l-.33,2.66h2l-.06.5h-2l-.48,3.93-.06.47,0,.3q0,.12,0,.17s0,.07,0,.08a.87.87,0,0,0,.21.66.77.77,0,0,0,.55.2,1.07,1.07,0,0,0,.41-.07,1.84,1.84,0,0,0,.31-.16l.22-.16a.24.24,0,0,1,.13-.07l.06,0,0,.05.13.29a2.13,2.13,0,0,1-.68.48,1.92,1.92,0,0,1-.8.18,1.24,1.24,0,0,1-.9-.32A1.31,1.31,0,0,1,130.81,64.72Z" transform="translate(-0.58 -8.5)"/><text class="cls-6" transform="translate(386.56 42.38)">$125</text><text class="cls-7" transform="translate(347.18 59.18)">Manufacturing Cost</text><text class="cls-6" transform="translate(216.67 237.47)">$215</text><path class="cls-4" d="M187.49,252.87H188a.19.19,0,0,1,.22.18l1.31,8.23a2.59,2.59,0,0,1,0,.28q0,.14,0,.3l.1-.3.11-.28L193.4,253a.33.33,0,0,1,.11-.13.27.27,0,0,1,.17-.05h.15a.2.2,0,0,1,.22.18l1.55,8.23q0,.13,0,.27l0,.29.09-.29.09-.27,3.33-8.23a.26.26,0,0,1,.11-.13.32.32,0,0,1,.18-.05H200l-4.09,9.91h-.62l-1.62-8.63q0-.08,0-.17l0-.19-.07.19-.07.17-3.74,8.63h-.62ZM200,262.77l1.23-10.19h.66l-.64,5.32a5.54,5.54,0,0,1,.62-.93,4.32,4.32,0,0,1,.71-.69,3,3,0,0,1,.77-.43,2.24,2.24,0,0,1,.79-.15,1.39,1.39,0,0,1,1.17.5,2.33,2.33,0,0,1,.39,1.45s0,.08,0,.13,0,.13,0,.25l-.05.5-.1.88-.16,1.37q-.09.82-.23,2h-.66l.53-4.45a4.72,4.72,0,0,0,0-.61,1.83,1.83,0,0,0-.27-1.08,1,1,0,0,0-.85-.37,1.74,1.74,0,0,0-.77.19,3,3,0,0,0-.76.55,5,5,0,0,0-.7.87,6.69,6.69,0,0,0-.58,1.14l-.46,3.76Zm9.48.09a2.57,2.57,0,0,1-1-.2,2.16,2.16,0,0,1-.78-.57,2.61,2.61,0,0,1-.5-.9A3.74,3.74,0,0,1,207,260a5.26,5.26,0,0,1,.25-1.63A4.49,4.49,0,0,1,208,257a3.57,3.57,0,0,1,1.09-.95,2.78,2.78,0,0,1,1.39-.35,2.53,2.53,0,0,1,1,.2,2.21,2.21,0,0,1,.78.57,2.57,2.57,0,0,1,.5.9,3.73,3.73,0,0,1,.18,1.19,5.17,5.17,0,0,1-.26,1.62,4.66,4.66,0,0,1-.71,1.38,3.56,3.56,0,0,1-1.09,1A2.76,2.76,0,0,1,209.5,262.86Zm.06-.52a2,2,0,0,0,1.11-.32,2.93,2.93,0,0,0,.86-.85,4.17,4.17,0,0,0,.55-1.21,5.15,5.15,0,0,0,.19-1.4,2.67,2.67,0,0,0-.5-1.73,1.68,1.68,0,0,0-1.38-.61,2,2,0,0,0-.76.14,2.35,2.35,0,0,0-.66.4,3.14,3.14,0,0,0-.54.61,3.86,3.86,0,0,0-.41.77,4.89,4.89,0,0,0-.25.89,5.21,5.21,0,0,0-.09,1,2.68,2.68,0,0,0,.49,1.73A1.68,1.68,0,0,0,209.56,262.34Zm4.7.43,1.23-10.19h.65l-1.24,10.19Zm8.18-5.64a1.91,1.91,0,0,1-.08.55,1.35,1.35,0,0,1-.27.49,2.2,2.2,0,0,1-.53.44,4.07,4.07,0,0,1-.86.38,10,10,0,0,1-1.25.31q-.73.14-1.71.24,0,.15,0,.29t0,.28a2.54,2.54,0,0,0,.47,1.63,1.72,1.72,0,0,0,1.42.59,2.56,2.56,0,0,0,.67-.08,2.5,2.5,0,0,0,.53-.21,2.86,2.86,0,0,0,.41-.27l.32-.27.24-.21a.31.31,0,0,1,.19-.08.19.19,0,0,1,.15.07l.15.18a6.75,6.75,0,0,1-.67.63,3.74,3.74,0,0,1-.66.43,3,3,0,0,1-.69.25,3.47,3.47,0,0,1-.76.08,2.61,2.61,0,0,1-1-.19,2.07,2.07,0,0,1-.76-.55,2.39,2.39,0,0,1-.47-.86,3.75,3.75,0,0,1-.16-1.14,5.45,5.45,0,0,1,.1-1.06,5.23,5.23,0,0,1,.31-1,4.75,4.75,0,0,1,.51-.92,3.7,3.7,0,0,1,.7-.74,3.2,3.2,0,0,1,.87-.5,2.86,2.86,0,0,1,1-.18,2.3,2.3,0,0,1,.86.14,1.77,1.77,0,0,1,.57.36,1.32,1.32,0,0,1,.32.46A1.27,1.27,0,0,1,222.44,257.14Zm-1.89-.94a2.14,2.14,0,0,0-1,.24,2.78,2.78,0,0,0-.8.63,3.66,3.66,0,0,0-.58.92,5,5,0,0,0-.35,1.09q.89-.1,1.53-.23a10.29,10.29,0,0,0,1.09-.27,3.43,3.43,0,0,0,.72-.31,1.8,1.8,0,0,0,.43-.35,1,1,0,0,0,.21-.37,1.46,1.46,0,0,0,.05-.39.89.89,0,0,0-.07-.32.83.83,0,0,0-.22-.31,1.26,1.26,0,0,0-.4-.23A1.73,1.73,0,0,0,220.55,256.2Zm7.26.46a.17.17,0,0,1-.15.1.29.29,0,0,1-.17-.09,2.26,2.26,0,0,0-.28-.2,2.12,2.12,0,0,0-.43-.2,2,2,0,0,0-.64-.09,1.91,1.91,0,0,0-.68.12,1.84,1.84,0,0,0-.55.32,1.53,1.53,0,0,0-.37.46,1.19,1.19,0,0,0-.14.56.84.84,0,0,0,.13.48,1.23,1.23,0,0,0,.35.34,2.6,2.6,0,0,0,.5.25l.57.21q.29.1.57.23a2.33,2.33,0,0,1,.5.31,1.32,1.32,0,0,1,.49,1.08,2.2,2.2,0,0,1-.18.87,2.31,2.31,0,0,1-.51.75,2.49,2.49,0,0,1-.79.52,2.66,2.66,0,0,1-1,.2,2.46,2.46,0,0,1-1.13-.23,2.62,2.62,0,0,1-.78-.61l.16-.24.08-.08a.19.19,0,0,1,.1,0s.11,0,.18.11a2.15,2.15,0,0,0,.29.25,2.06,2.06,0,0,0,.47.25,2.25,2.25,0,0,0,1.47,0,1.74,1.74,0,0,0,.58-.37,1.7,1.7,0,0,0,.37-.55,1.67,1.67,0,0,0,.13-.66,1,1,0,0,0-.13-.52,1.26,1.26,0,0,0-.35-.36,2.26,2.26,0,0,0-.5-.26l-.57-.21-.57-.22a2.17,2.17,0,0,1-.5-.3,1.35,1.35,0,0,1-.35-.43,1.31,1.31,0,0,1-.13-.62A1.82,1.82,0,0,1,224,257a2.12,2.12,0,0,1,.49-.67,2.39,2.39,0,0,1,.75-.46,2.57,2.57,0,0,1,1-.17,2.63,2.63,0,0,1,1,.18,2.2,2.2,0,0,1,.77.55Zm5.79,6.11h-.32a.2.2,0,0,1-.24-.22l.23-2.19a7.19,7.19,0,0,1-.58,1,4.66,4.66,0,0,1-.68.79,2.93,2.93,0,0,1-.76.51,2,2,0,0,1-.83.18,1.64,1.64,0,0,1-.77-.17,1.52,1.52,0,0,1-.55-.49,2.28,2.28,0,0,1-.33-.76,4.16,4.16,0,0,1-.11-1,4.66,4.66,0,0,1,.15-1.19,5,5,0,0,1,.44-1.11,5.08,5.08,0,0,1,.68-1,4.68,4.68,0,0,1,.86-.76,4.14,4.14,0,0,1,1-.5,3.46,3.46,0,0,1,1.11-.18,4,4,0,0,1,.78.07,2.81,2.81,0,0,1,.72.26Zm-3-.46a1.56,1.56,0,0,0,.79-.22,2.87,2.87,0,0,0,.74-.63,5.63,5.63,0,0,0,.66-1,8.85,8.85,0,0,0,.56-1.28l.35-2.84a2.78,2.78,0,0,0-.9-.14,2.69,2.69,0,0,0-.91.16,3.33,3.33,0,0,0-.83.44,4,4,0,0,0-.71.67,4.54,4.54,0,0,0-.56.84,4.49,4.49,0,0,0-.37,1,4.23,4.23,0,0,0-.13,1,2.8,2.8,0,0,0,.32,1.46A1.08,1.08,0,0,0,230.63,262.31Zm5.28.46,1.23-10.19h.65l-1.24,10.19Zm8.18-5.64a1.91,1.91,0,0,1-.08.55,1.35,1.35,0,0,1-.27.49,2.2,2.2,0,0,1-.53.44,4.07,4.07,0,0,1-.86.38,10,10,0,0,1-1.25.31q-.73.14-1.71.24,0,.15,0,.29t0,.28a2.54,2.54,0,0,0,.47,1.63,1.72,1.72,0,0,0,1.42.59,2.56,2.56,0,0,0,.67-.08,2.5,2.5,0,0,0,.53-.21,2.86,2.86,0,0,0,.41-.27l.32-.27.24-.21a.31.31,0,0,1,.19-.08.19.19,0,0,1,.15.07l.15.18a6.75,6.75,0,0,1-.67.63,3.74,3.74,0,0,1-.66.43,3,3,0,0,1-.69.25,3.47,3.47,0,0,1-.76.08,2.61,2.61,0,0,1-1-.19,2.07,2.07,0,0,1-.76-.55,2.39,2.39,0,0,1-.47-.86,3.75,3.75,0,0,1-.16-1.14,5.45,5.45,0,0,1,.1-1.06,5.23,5.23,0,0,1,.31-1,4.75,4.75,0,0,1,.51-.92,3.7,3.7,0,0,1,.7-.74,3.2,3.2,0,0,1,.87-.5,2.86,2.86,0,0,1,1-.18,2.3,2.3,0,0,1,.86.14,1.77,1.77,0,0,1,.57.36,1.32,1.32,0,0,1,.32.46A1.27,1.27,0,0,1,244.09,257.14Zm-1.89-.94a2.14,2.14,0,0,0-1,.24,2.78,2.78,0,0,0-.8.63,3.66,3.66,0,0,0-.58.92,5,5,0,0,0-.35,1.09q.89-.1,1.53-.23a10.29,10.29,0,0,0,1.09-.27,3.43,3.43,0,0,0,.72-.31,1.8,1.8,0,0,0,.43-.35,1,1,0,0,0,.21-.37,1.46,1.46,0,0,0,.05-.39.89.89,0,0,0-.07-.32.83.83,0,0,0-.22-.31,1.26,1.26,0,0,0-.4-.23A1.73,1.73,0,0,0,242.2,256.2Zm10,2.58-.49,4H251l1.21-9.91h2.38a3.18,3.18,0,0,1,2.18.65,2.34,2.34,0,0,1,.73,1.84,3.59,3.59,0,0,1-.26,1.38,3.1,3.1,0,0,1-.73,1.08,3.36,3.36,0,0,1-1.15.7,4.24,4.24,0,0,1-1.5.25Zm.66-5.36-.59,4.8h1.68a3.19,3.19,0,0,0,1.19-.21,2.66,2.66,0,0,0,.9-.58,2.56,2.56,0,0,0,.58-.88,3,3,0,0,0,.2-1.11,1.92,1.92,0,0,0-.57-1.48,2.44,2.44,0,0,0-1.71-.53Zm5.37,9.35.84-7h.3a.22.22,0,0,1,.24.25l-.2,2.07a5.49,5.49,0,0,1,1.09-1.76,1.82,1.82,0,0,1,1.31-.62,1.59,1.59,0,0,1,.59.12l-.12.62a1.74,1.74,0,0,0-.6-.12,1.72,1.72,0,0,0-1.35.74,6.36,6.36,0,0,0-1,2.13l-.42,3.55Zm6.77.09a2.57,2.57,0,0,1-1-.2,2.16,2.16,0,0,1-.78-.57,2.61,2.61,0,0,1-.5-.9,3.74,3.74,0,0,1-.18-1.2,5.26,5.26,0,0,1,.25-1.63,4.49,4.49,0,0,1,.71-1.38,3.57,3.57,0,0,1,1.09-.95,2.78,2.78,0,0,1,1.39-.35,2.53,2.53,0,0,1,1,.2,2.21,2.21,0,0,1,.78.57,2.57,2.57,0,0,1,.5.9,3.73,3.73,0,0,1,.18,1.19,5.17,5.17,0,0,1-.26,1.62,4.66,4.66,0,0,1-.71,1.38,3.56,3.56,0,0,1-1.08,1A2.76,2.76,0,0,1,265,262.86Zm.06-.52a2,2,0,0,0,1.11-.32,2.93,2.93,0,0,0,.86-.85,4.17,4.17,0,0,0,.55-1.21,5.15,5.15,0,0,0,.19-1.4,2.67,2.67,0,0,0-.5-1.73,1.68,1.68,0,0,0-1.38-.61,2,2,0,0,0-.76.14,2.35,2.35,0,0,0-.66.4,3.14,3.14,0,0,0-.54.61,3.86,3.86,0,0,0-.41.77,4.89,4.89,0,0,0-.25.89,5.21,5.21,0,0,0-.09,1,2.68,2.68,0,0,0,.49,1.73A1.68,1.68,0,0,0,265,262.34Zm6.06-6.31h3.78l-.83,6.75h-.66l.77-6.25h-3.09l-.76,6.11-.29,1.61a.35.35,0,0,1-.12.22.35.35,0,0,1-.23.07h-.24l1-8-.88-.06q-.17,0-.17-.15l0-.29h1.08l.08-.59a3.78,3.78,0,0,1,.32-1.16,2.77,2.77,0,0,1,.62-.86,2.62,2.62,0,0,1,.89-.54,3.2,3.2,0,0,1,1.12-.19h.23l.26,0,.24,0,.19.06-.06.32a.11.11,0,0,1-.12.08l-.24,0a2.26,2.26,0,0,0-.39,0,2.38,2.38,0,0,0-1.64.56,2.64,2.64,0,0,0-.76,1.72ZM277,261.6s0-.06,0-.1,0-.1,0-.19,0-.19,0-.33l.06-.51.48-4h-.92q-.14,0-.14-.13l0-.29,1.1-.08.46-2.49a.23.23,0,0,1,.06-.11.16.16,0,0,1,.12,0h.32l-.33,2.66h2l-.06.5h-2l-.48,3.93-.06.47,0,.3q0,.12,0,.17s0,.07,0,.08a.87.87,0,0,0,.21.66.77.77,0,0,0,.55.2,1.07,1.07,0,0,0,.41-.07,1.84,1.84,0,0,0,.31-.16l.22-.16a.24.24,0,0,1,.13-.07l.06,0,0,.05.13.29a2.13,2.13,0,0,1-.68.48,1.92,1.92,0,0,1-.8.18,1.24,1.24,0,0,1-.9-.31A1.31,1.31,0,0,1,277,261.6Z" transform="translate(-0.58 -8.5)"/><text class="cls-8" transform="translate(213.8 105.04)">$485</text><text class="cls-9" transform="translate(198.22 124.24)">Retail Price</text><polyline class="cls-10" points="99.79 61.82 99.79 85.59 159.37 85.59"/><polyline class="cls-10" points="402.55 70.93 402.55 94.7 321.36 94.7"/><line class="cls-10" x1="236.22" y1="184.73" x2="236.22" y2="222.93"/><rect class="cls-1" width="729" height="271"/><text class="cls-11" transform="translate(535.98 44.8)"><tspan class="cls-12">P</tspan><tspan x="9.04" y="0">ower Wheelchair Users</tspan></text><text class="cls-13" transform="translate(543.44 208)">32,000 </text><text class="cls-11" transform="translate(600.04 208)"><tspan xml:space="preserve"> New England</tspan></text><text class="cls-13" transform="translate(539.24 228.4)">250,000</text><text class="cls-11" transform="translate(602.42 228.4)"><tspan xml:space="preserve"> United States</tspan></text><g class="cls-14"><path class="cls-15" d="M610.18,73.37A9.18,9.18,0,1,1,601,82.55a9.17,9.17,0,0,1,9.17-9.18" transform="translate(-0.58 -8.5)"/><path class="cls-15" d="M652.41,161l-6-29.84a5.13,5.13,0,0,0-5-4.12H630.48a28.28,28.28,0,0,1,6.71,10.26h0l0,.12A28.06,28.06,0,0,1,639,146l3.39,17a5.13,5.13,0,0,0,5,4.13,5,5,0,0,0,1-.1,5.13,5.13,0,0,0,4-6" transform="translate(-0.58 -8.5)"/><path class="cls-15" d="M620,131.75a17.81,17.81,0,0,0-9.17-2.53c-.47,0-.94,0-1.4.05a17.86,17.86,0,0,0-5.24,1.22,8.2,8.2,0,0,0,8.06,6.74l.65,0h.05a5.57,5.57,0,0,0,.74.05h12.08a18,18,0,0,0-5.78-5.51" transform="translate(-0.58 -8.5)"/><path class="cls-15" d="M609.53,94.5a8.21,8.21,0,0,0-7.54,8.83L603.3,120a28.17,28.17,0,0,1,6-1c.48,0,1,0,1.47,0a28,28,0,0,1,14.95,4.31h14.68a3.59,3.59,0,0,0,0-7.19h-21l-1.1-14a8.2,8.2,0,0,0-8.82-7.55" transform="translate(-0.58 -8.5)"/><path class="cls-15" d="M610.8,167.21a20,20,0,0,1,0-40c.46,0,.92,0,1.38,0a19.83,19.83,0,0,1,8.24,2.42,20.19,20.19,0,0,1,7.74,7.62,20,20,0,0,1-17.36,29.94M627.42,127a26,26,0,0,0-6-3.74q-.71-.32-1.44-.59A26,26,0,0,0,610.8,121c-.42,0-.84,0-1.26,0a26.2,26.2,0,1,0,17.89,6" transform="translate(-0.58 -8.5)"/></g><rect class="cls-1" width="729" height="271"/><path class="cls-16" d="M295.33,125.12,340,133a101,101,0,0,1-117,81.9c-42.45-7.48-74.41-39.45-81.89-81.9l44.66-7.88v-.27a55.6,55.6,0,0,0,109.5,0Z" transform="translate(-0.58 -8.5)"/><path class="cls-17" d="M240.95,170.65" transform="translate(-0.58 -8.5)"/><path class="cls-18" d="M295.61,125.17A55.66,55.66,0,0,0,248.39,60h0l6.25-44.48a101,101,0,0,1,85.92,114c-.23,1.66-.26,1.83-.55,3.48Z" transform="translate(-0.58 -8.5)"/><path class="cls-19" d="M185.91,125.11,141.17,133a101,101,0,0,1,81.9-117,98.35,98.35,0,0,1,31.58-.55L248.39,60a55.64,55.64,0,0,0-62.48,65.11Z" transform="translate(-0.58 -8.5)"/></svg>