<svg id="Layer_1" data-name="Layer 1" xmlns="http://www.w3.org/2000/svg" xmlns:xlink="http://www.w3.org/1999/xlink" viewBox="0 0 667.43 196.23"><defs><style>.cls-1,.cls-14,.cls-15,.cls-22{fill:none;}.cls-2,.cls-5{font-size:17px;font-style:italic;}.cls-16,.cls-2,.cls-23,.cls-5{fill:#fff;}.cls-2{font-family:Lato-LightItalic, Lato;}.cls-3{letter-spacing:-0.01em;}.cls-4{letter-spacing:-0.01em;}.cls-5{font-family:Lato-BlackItalic, Lato;}.cls-6{letter-spacing:-0.02em;}.cls-7{letter-spacing:-0.02em;}.cls-8{letter-spacing:-0.01em;}.cls-9{letter-spacing:-0.01em;}.cls-10{letter-spacing:-0.02em;}.cls-11{letter-spacing:-0.02em;}.cls-12{letter-spacing:-0.02em;}.cls-13{clip-path:url(#clip-path);}.cls-14,.cls-22{stroke:#fff;}.cls-15{stroke:#7f58a3;stroke-linecap:round;stroke-miterlimit:10;stroke-width:4.14px;}.cls-16{font-size:12px;font-family:Lato-Bold, Lato;font-weight:700;}.cls-17{letter-spacing:-0.04em;}.cls-18{letter-spacing:-0.04em;}.cls-19{letter-spacing:-0.07em;}.cls-20{letter-spacing:-0.02em;}.cls-21{letter-spacing:0em;}.cls-22{stroke-width:0.5px;}.cls-23{font-size:10px;font-family:Lato-Regular, Lato;}</style><clipPath id="clip-path" transform="translate(-16.34 -50.96)"><rect class="cls-1" x="17.02" y="50.96" width="685.96" height="201.2"/></clipPath></defs><title>business-graph2</title><text class="cls-2" transform="translate(441.78 62.28)">Initial i<tspan class="cls-3" x="45.99" y="0">n</tspan><tspan class="cls-4" x="54.51" y="0">v</tspan><tspan x="62.05" y="0">estment of </tspan></text><text class="cls-5" transform="translate(578.42 62.28)">$600,000</text><text class="cls-2" transform="translate(465.64 82.69)">B<tspan class="cls-6" x="10.02" y="0">r</tspan><tspan x="15.41" y="0">ea</tspan><tspan class="cls-7" x="31.35" y="0">k</tspan><tspan x="38.54" y="0">e</tspan><tspan class="cls-8" x="46.15" y="0">v</tspan><tspan x="53.69" y="0">en during </tspan><tspan class="cls-9" x="119.7" y="0">y</tspan><tspan x="127.25" y="0">ear </tspan></text><text class="cls-5" transform="translate(617.72 82.69)">2</text><text class="cls-2" transform="translate(425.81 103.08)">Captu<tspan class="cls-10" x="41.96" y="0">r</tspan><tspan x="47.36" y="0">e</tspan></text><text class="cls-5" transform="translate(480.74 103.08)"><tspan xml:space="preserve"> 4% </tspan></text><text class="cls-2" transform="translate(510.01 103.08)">of the mar<tspan class="cls-11" x="68.97" y="0">k</tspan><tspan x="76.16" y="0">et by </tspan></text><text class="cls-5" transform="translate(622.25 103.08)"><tspan class="cls-12">y</tspan><tspan x="8.45" y="0">ear 4</tspan></text><g class="cls-13"><line class="cls-14" x1="74.8" x2="74.8" y2="192.8"/></g><line class="cls-14" x1="62.8" y1="146.8" x2="403.34" y2="146.8"/><g class="cls-13"><path class="cls-15" d="M91.64,198.26s32.08,29.09,61.9,30.1,68.88-29.88,68.88-29.88S345.54,92,396,76.83" transform="translate(-16.34 -50.96)"/></g><text class="cls-16" transform="translate(223.52 194.06)">YEAR</text><g class="cls-13"><text class="cls-16" transform="translate(10.34 156.9) rotate(-90)"><tspan class="cls-17">T</tspan><tspan class="cls-18" x="6.68" y="0">O</tspan><tspan class="cls-19" x="15.81" y="0">T</tspan><tspan x="22.07" y="0">AL P</tspan><tspan class="cls-20" x="46.61" y="0">R</tspan><tspan class="cls-21" x="54.19" y="0">OFIT ($)</tspan></text></g><line class="cls-22" x1="221.2" y1="146.8" x2="221.2" y2="156.4"/><text class="cls-23" transform="translate(218.05 168.65)">2</text><line class="cls-22" x1="148.37" y1="147.3" x2="148.37" y2="156.9"/><text class="cls-23" transform="translate(145.22 169.15)">1</text><line class="cls-22" x1="362.55" y1="146.8" x2="362.55" y2="156.4"/><text class="cls-23" transform="translate(359.4 168.65)">4</text><line class="cls-22" x1="289.72" y1="147.3" x2="289.72" y2="156.9"/><text class="cls-23" transform="translate(286.57 169.15)">3</text><line class="cls-22" x1="74.76" y1="175.75" x2="65.16" y2="175.75"/><text class="cls-23" transform="translate(31.85 178.75)">-500k</text><line class="cls-22" x1="74.76" y1="117.55" x2="65.16" y2="117.55"/><text class="cls-23" transform="translate(33.59 120.55)">500k</text><line class="cls-22" x1="74.76" y1="86.13" x2="65.16" y2="86.13"/><text class="cls-23" transform="translate(30.69 89.12)">1000k</text><line class="cls-22" x1="74.76" y1="51.2" x2="65.16" y2="51.2"/><text class="cls-23" transform="translate(30.69 54.2)">1500k</text><line class="cls-22" x1="74.76" y1="18.05" x2="65.16" y2="18.05"/><text class="cls-23" transform="translate(30.69 21.05)">2000k</text><text class="cls-23" transform="translate(43.06 150.55)">0</text></svg>